<svg xmlns="http://www.w3.org/2000/svg" viewBox="280 210 465 465">
    <circle cx="512.5" cy="442.5" r="232.5" fill="rgb(17,29,53)"/>
    <g>
        <path d="M 330.99 441.75 L 327.96 447.00 L 306.00 447.00 L 306.00 440.99 C306.00,437.69 306.69,430.38 307.53,424.74 C315.78,369.51 345.24,320.01 389.29,287.35 C422.94,262.40 461.65,249.45 506.09,248.26 C560.39,246.81 607.40,263.60 648.50,299.13 C687.94,333.21 714.35,385.65 718.57,438.28 L 719.28 447.07 L 696.75 446.50 L 692.76 439.50 C682.98,422.37 677.86,412.81 678.25,412.42 C678.48,412.19 680.86,412.66 683.54,413.46 C686.22,414.27 688.58,414.76 688.79,414.55 C688.99,414.34 685.54,407.52 681.11,399.39 C676.68,391.26 673.17,384.50 673.31,384.36 C673.45,384.22 675.48,384.59 677.82,385.18 C680.16,385.78 682.29,386.04 682.56,385.78 C683.07,385.26 662.84,351.09 662.00,351.07 C661.72,351.06 659.30,354.98 656.61,359.77 C646.31,378.13 641.86,387.00 642.96,387.00 C643.59,387.00 645.47,386.29 647.14,385.43 C648.82,384.56 650.39,384.05 650.63,384.30 C651.38,385.05 647.17,394.81 641.79,404.79 L 636.67 414.30 L 639.58 413.59 C640.26,413.42 640.88,413.26 641.45,413.12 C644.10,412.45 645.55,412.08 645.97,412.58 C646.47,413.18 645.45,415.05 643.19,419.20 C642.79,419.93 642.36,420.73 641.88,421.61 C638.95,427.05 634.73,434.88 632.52,439.00 C626.95,449.36 625.39,449.27 619.45,438.24 C617.00,433.69 615.00,429.59 615.00,429.12 C615.00,428.65 616.80,428.60 619.00,429.00 C621.20,429.40 623.00,429.53 623.00,429.29 C623.00,429.05 621.25,425.85 619.12,422.17 C616.99,418.50 613.81,412.65 612.06,409.16 C611.88,408.79 611.70,408.45 611.54,408.12 C610.14,405.34 609.46,404.01 609.84,403.57 C610.19,403.16 611.44,403.53 613.85,404.23 C614.16,404.32 614.48,404.41 614.83,404.51 C616.92,405.12 616.38,403.64 609.63,390.34 C608.96,389.01 608.33,387.77 607.75,386.61 C602.76,376.74 600.84,372.95 599.32,373.10 C598.19,373.21 597.28,375.48 595.49,379.05 C593.44,383.15 589.34,390.23 586.38,394.78 C580.73,403.48 580.76,404.85 586.52,403.75 C587.99,403.47 589.00,403.74 589.00,404.42 C589.00,405.93 583.09,418.15 579.10,424.87 L 575.91 430.24 L 580.46 429.56 C582.95,429.18 585.00,429.19 585.00,429.56 C585.00,429.94 583.09,433.79 580.75,438.13 L 576.50 446.00 L 447.50 445.99 L 442.69 437.39 C440.05,432.66 438.05,428.62 438.26,428.41 C438.46,428.20 440.17,428.48 442.06,429.02 C446.29,430.23 448.00,430.26 448.00,429.13 C448.00,428.65 445.49,423.82 442.42,418.40 C439.35,412.98 436.21,407.05 435.45,405.21 L 434.05 401.89 L 443.46 403.30 L 440.88 399.90 C439.46,398.03 435.24,390.98 431.51,384.24 C426.73,375.63 424.38,372.27 423.58,372.93 C422.33,373.97 409.49,400.18 408.50,403.72 C407.92,405.81 408.06,405.88 410.99,404.85 C412.70,404.26 414.33,403.99 414.60,404.27 C415.09,404.75 408.60,417.62 403.98,425.37 L 401.67 429.23 L 405.83 428.53 C408.12,428.14 410.00,428.10 410.00,428.43 C410.00,428.77 407.97,433.08 405.49,438.02 C401.12,446.72 399.36,448.37 397.23,445.75 C395.75,443.93 379.00,413.71 379.00,412.86 C379.00,412.46 380.46,412.56 382.24,413.07 C389.16,415.05 389.45,414.58 385.52,407.75 C380.43,398.91 373.81,385.86 374.21,385.45 C374.40,385.26 376.33,385.51 378.50,386.00 C380.67,386.49 382.63,386.70 382.86,386.47 C383.38,385.95 362.92,352.00 362.09,352.01 C361.27,352.03 343.00,385.34 343.00,386.83 C343.00,387.64 344.37,387.34 347.09,385.96 L 351.18 383.87 L 350.52 386.18 C350.17,387.46 346.97,394.24 343.43,401.25 C339.88,408.26 337.37,414.00 337.84,414.00 C338.32,414.00 340.14,413.50 341.90,412.88 C343.66,412.27 345.34,412.01 345.63,412.30 C346.16,412.83 336.69,431.90 330.99,441.75 Z" fill="#038da8ff"/>
        <path d="M 625.89 577.34 C608.18,578.11 413.09,577.86 395.79,577.05 L 384.07 576.50 L 379.00 569.61 L 379.00 507.19 L 383.75 506.63 C386.36,506.32 392.21,505.78 396.73,505.43 L 404.97 504.79 L 405.23 533.63 L 405.50 562.46 L 416.50 549.03 L 607.50 549.03 L 618.50 562.46 L 618.77 533.60 L 619.03 504.74 L 628.27 505.41 C633.34,505.77 639.48,506.34 641.89,506.67 L 646.28 507.27 L 645.55 539.35 C644.89,568.38 644.65,571.69 642.96,574.06 C641.12,576.64 640.82,576.70 625.89,577.34 Z" fill="#A9D6F5"/>
        <path d="M 542.50 638.48 C533.78,640.05 505.64,641.24 497.50,640.38 C461.58,636.56 431.22,623.22 404.91,599.71 C399.74,595.08 394.64,590.33 393.60,589.15 L 391.69 587.00 L 511.85 587.00 C577.93,587.00 632.00,587.37 632.00,587.83 C632.00,590.38 608.66,610.18 597.06,617.48 C582.52,626.62 559.88,635.33 542.50,638.48 Z" fill="#A9D6F5"/>
        /* Circle */
        <circle cx="511.5" cy="349" r="52" fill="#e6dedcff"/>
        <path d="M 601.00 542.40 C601.00,542.73 560.71,543.00 511.46,543.00 C501.57,543.00 492.74,543.01 484.86,543.02 C436.22,543.07 423.97,543.09 423.40,540.50 C423.20,539.63 424.33,538.47 425.84,536.91 C426.56,536.16 427.38,535.32 428.17,534.38 C430.55,531.56 434.21,527.18 436.30,524.63 L 440.10 520.00 L 583.66 520.00 L 592.33 530.90 C597.10,536.89 601.00,542.07 601.00,542.40 Z" fill="#CDEBFB"/>
        <path d="M 577.32 512.70 L 579.15 515.00 L 512.04 515.00 C448.43,515.00 444.98,514.91 445.89,513.25 C446.42,512.29 449.37,508.46 452.45,504.75 L 458.04 498.00 L 511.14 498.00 C558.23,498.00 564.10,497.83 563.00,496.50 C562.32,495.67 561.97,495.00 562.24,495.00 C562.66,495.00 571.68,505.59 577.32,512.70 Z" fill="#CDEBFB"/>
        <path d="M 563.39 492.42 C562.85,493.83 557.39,494.00 512.03,494.00 L 461.27 494.00 L 460.55 481.41 C460.16,474.49 459.99,468.71 460.17,468.56 C460.35,468.41 462.64,468.00 465.25,467.66 L 470.00 467.04 L 470.00 485.37 L 472.80 482.69 L 475.61 480.00 L 548.40 480.00 L 555.00 486.39 L 555.00 468.00 L 557.92 468.00 C563.87,468.00 564.00,468.25 564.00,480.03 C564.00,485.97 563.73,491.55 563.39,492.42 Z" fill="#CDEBFB"/>
        <path d="M 546.00 477.44 C546.00,477.75 530.70,478.00 512.00,478.00 C493.30,478.00 478.00,477.73 478.00,477.39 C478.00,477.06 479.39,475.04 481.08,472.89 L 484.17 469.00 L 539.67 469.00 L 542.83 472.94 C544.57,475.11 546.00,477.13 546.00,477.44 Z" fill="#CDEBFB"/>
        
        <path d="M 535.75 464.75 L 538.26 468.00 L 512.13 468.00 C497.76,468.00 486.00,467.63 486.00,467.19 C486.00,466.74 487.27,465.16 488.83,463.67 L 491.65 460.96 L 533.25 461.50 Z" fill="#CDEBFB"/>
        <path d="M 531.00 459.33 C531.00,459.70 522.45,460.00 512.00,460.00 C501.55,460.00 493.00,459.75 493.00,459.43 C493.00,459.12 493.47,458.00 494.04,456.93 C494.99,455.14 496.28,455.00 511.38,455.00 C525.91,455.00 527.87,455.20 529.35,456.83 C530.26,457.83 531.00,458.96 531.00,459.33 Z" fill="#CDEBFB"/>
        
        / *star */
        <path d="M 618.59 329.52 C619.23,332.03 621.00,332.99 621.00,330.81 C621.00,328.93 625.17,325.00 627.17,325.00 C629.90,325.00 629.38,323.31 626.43,322.57 C625.02,322.22 623.11,320.60 622.18,318.97 C620.45,315.92 619.00,315.11 619.00,317.19 C619.00,319.16 614.79,323.00 612.58,323.04 C611.00,323.08 611.40,323.57 614.23,325.06 C616.49,326.25 618.22,328.02 618.59,329.52 Z" fill="#FFF"/>
        <!-- Mirrored star on the left side -->
        <path d="M 406.41 329.52 C405.77,332.03 404.00,332.99 404.00,330.81 C404.00,328.93 399.83,325.00 397.83,325.00 C395.10,325.00 395.62,323.31 398.57,322.57 C399.98,322.22 401.89,320.60 402.82,318.97 C404.55,315.92 406.00,315.11 406.00,317.19 C406.00,319.16 410.21,323.00 412.42,323.04 C414.00,323.08 413.60,323.57 410.77,325.06 C408.51,326.25 406.78,328.02 406.41,329.52 Z" fill="#FFF"/>
        
        
        
    </g>
</svg>
